<?xml version="1.0" encoding="UTF-8"?>
<svg width="1000" height="400" xmlns="http://www.w3.org/2000/svg">
<rect x="0" y="0" width="100%" height="100%" fill="white"/>
<line x1="60" y1="340" x2="980" y2="340" stroke="black" stroke-width="1"/>
<line x1="60" y1="20" x2="60" y2="340" stroke="black" stroke-width="1"/>
<text x="60.0" y="360" font-size="10" text-anchor="middle">0</text>
<text x="152.0" y="360" font-size="10" text-anchor="middle">408</text>
<text x="244.0" y="360" font-size="10" text-anchor="middle">817</text>
<text x="336.0" y="360" font-size="10" text-anchor="middle">1225</text>
<text x="428.0" y="360" font-size="10" text-anchor="middle">1633</text>
<text x="520.0" y="360" font-size="10" text-anchor="middle">2041</text>
<text x="612.0" y="360" font-size="10" text-anchor="middle">2450</text>
<text x="704.0" y="360" font-size="10" text-anchor="middle">2858</text>
<text x="796.0" y="360" font-size="10" text-anchor="middle">3266</text>
<text x="888.0" y="360" font-size="10" text-anchor="middle">3674</text>
<text x="980.0" y="360" font-size="10" text-anchor="middle">4083</text>
<text x="50" y="24.0" font-size="10" text-anchor="end">746</text>
<text x="50" y="56.0" font-size="10" text-anchor="end">739</text>
<text x="50" y="88.0" font-size="10" text-anchor="end">732</text>
<text x="50" y="120.0" font-size="10" text-anchor="end">725</text>
<text x="50" y="152.0" font-size="10" text-anchor="end">719</text>
<text x="50" y="184.0" font-size="10" text-anchor="end">712</text>
<text x="50" y="216.0" font-size="10" text-anchor="end">705</text>
<text x="50" y="248.0" font-size="10" text-anchor="end">698</text>
<text x="50" y="280.0" font-size="10" text-anchor="end">692</text>
<text x="50" y="312.0" font-size="10" text-anchor="end">685</text>
<text x="50" y="344.0" font-size="10" text-anchor="end">678</text>
<polyline points="60.0,340.0 84.22,340.0 155.93,275.29 160.63,268.11 172.95,256.5 249.02,239.48 306.46,200.06 367.73,42.36 371.14,29.31 375.34,22.59 395.22,20.0 428.67,49.43 499.18,111.79 547.45,163.92 553.46,171.16 560.65,176.36 578.39,195.27 597.34,204.98 611.34,201.3 656.8,185.82 668.24,187.99 677.99,197.45 687.97,223.75 725.76,275.18 734.0,281.24 744.53,285.36 755.38,284.73 775.5,267.78 796.21,269.41 902.38,248.58 913.17,255.32 951.42,306.46 955.78,314.76 980.0,330.36" fill="none" stroke="black" stroke-width="2"/>
</svg>