<?xml version="1.0" encoding="utf-8"?><svg width="auto" height="6820" style="overflow:visible " version="1.1" xmlns="http://www.w3.org/2000/svg"><rect x="20" y="20" width="200" height="40" style="fill:white;stroke:black;stroke-width:1" /><text x="30" y="30" font-size="10" style="fill:blue">xs:schema</text><text x="30" y="40" font-size="8" style="fill:black">xmlns: http://www.uniovi.es</text><text x="30" y="50" font-size="8" style="fill:black">targetNamespace: http://www.uniovi.es</text><text x="30" y="60" font-size="8" style="fill:black">xmlns:xs: http://www.w3.org/2001/XMLSchema</text><text x="30" y="70" font-size="8" style="fill:black">elementFormDefault: qualified</text><rect x="240" y="20" width="200" height="40" style="fill:white;stroke:black;stroke-width:1" /><text x="250" y="30" font-size="10" style="fill:blue">xs:element</text><path d="M220 40 C240 40 220 40 240 40" style="fill:transparent;stroke:black" /><text x="250" y="40" font-size="8" style="fill:black">name: circuito</text><rect x="460" y="20" width="200" height="40" style="fill:white;stroke:black;stroke-width:1" /><text x="470" y="30" font-size="10" style="fill:blue">xs:complexType</text><path d="M440 40 C460 40 440 40 460 40" style="fill:transparent;stroke:black" /><rect x="680" y="20" width="200" height="40" style="fill:white;stroke:black;stroke-width:1" /><text x="690" y="30" font-size="10" style="fill:blue">xs:sequence</text><path d="M660 40 C680 40 660 40 680 40" style="fill:transparent;stroke:black" /><rect x="900" y="20" width="200" height="40" style="fill:white;stroke:black;stroke-width:1" /><text x="910" y="30" font-size="10" style="fill:blue">xs:element</text><path d="M880 40 C900 40 880 40 900 40" style="fill:transparent;stroke:black" /><text x="910" y="40" font-size="8" style="fill:black">ref: longitud_circuito</text><rect x="900" y="70" width="200" height="40" style="fill:white;stroke:black;stroke-width:1" /><text x="910" y="80" font-size="10" style="fill:blue">xs:element</text><path d="M880 40 C900 40 880 90 900 90" style="fill:transparent;stroke:black" /><text x="910" y="90" font-size="8" style="fill:black">ref: anchura</text><rect x="900" y="120" width="200" height="40" style="fill:white;stroke:black;stroke-width:1" /><text x="910" y="130" font-size="10" style="fill:blue">xs:element</text><path d="M880 40 C900 40 880 140 900 140" style="fill:transparent;stroke:black" /><text x="910" y="140" font-size="8" style="fill:black">ref: fecha</text><rect x="900" y="170" width="200" height="40" style="fill:white;stroke:black;stroke-width:1" /><text x="910" y="180" font-size="10" style="fill:blue">xs:element</text><path d="M880 40 C900 40 880 190 900 190" style="fill:transparent;stroke:black" /><text x="910" y="190" font-size="8" style="fill:black">ref: hora_española</text><rect x="900" y="220" width="200" height="40" style="fill:white;stroke:black;stroke-width:1" /><text x="910" y="230" font-size="10" style="fill:blue">xs:element</text><path d="M880 40 C900 40 880 240 900 240" style="fill:transparent;stroke:black" /><text x="910" y="240" font-size="8" style="fill:black">ref: num_vueltas</text><rect x="900" y="270" width="200" height="40" style="fill:white;stroke:black;stroke-width:1" /><text x="910" y="280" font-size="10" style="fill:blue">xs:element</text><path d="M880 40 C900 40 880 290 900 290" style="fill:transparent;stroke:black" /><text x="910" y="290" font-size="8" style="fill:black">ref: localidad_mas_proxima</text><rect x="900" y="320" width="200" height="40" style="fill:white;stroke:black;stroke-width:1" /><text x="910" y="330" font-size="10" style="fill:blue">xs:element</text><path d="M880 40 C900 40 880 340 900 340" style="fill:transparent;stroke:black" /><text x="910" y="340" font-size="8" style="fill:black">ref: pais</text><rect x="900" y="370" width="200" height="40" style="fill:white;stroke:black;stroke-width:1" /><text x="910" y="380" font-size="10" style="fill:blue">xs:element</text><path d="M880 40 C900 40 880 390 900 390" style="fill:transparent;stroke:black" /><text x="910" y="390" font-size="8" style="fill:black">ref: patrocinador</text><text x="910" y="400" font-size="8" style="fill:black">minOccurs: 0</text><rect x="900" y="420" width="200" height="40" style="fill:white;stroke:black;stroke-width:1" /><text x="910" y="430" font-size="10" style="fill:blue">xs:element</text><path d="M880 40 C900 40 880 440 900 440" style="fill:transparent;stroke:black" /><text x="910" y="440" font-size="8" style="fill:black">ref: referencias</text><rect x="900" y="470" width="200" height="40" style="fill:white;stroke:black;stroke-width:1" /><text x="910" y="480" font-size="10" style="fill:blue">xs:element</text><path d="M880 40 C900 40 880 490 900 490" style="fill:transparent;stroke:black" /><text x="910" y="490" font-size="8" style="fill:black">ref: fotografias</text><rect x="900" y="520" width="200" height="40" style="fill:white;stroke:black;stroke-width:1" /><text x="910" y="530" font-size="10" style="fill:blue">xs:element</text><path d="M880 40 C900 40 880 540 900 540" style="fill:transparent;stroke:black" /><text x="910" y="540" font-size="8" style="fill:black">ref: videos</text><text x="910" y="550" font-size="8" style="fill:black">minOccurs: 0</text><rect x="900" y="570" width="200" height="40" style="fill:white;stroke:black;stroke-width:1" /><text x="910" y="580" font-size="10" style="fill:blue">xs:element</text><path d="M880 40 C900 40 880 590 900 590" style="fill:transparent;stroke:black" /><text x="910" y="590" font-size="8" style="fill:black">ref: punto_origen</text><rect x="900" y="620" width="200" height="40" style="fill:white;stroke:black;stroke-width:1" /><text x="910" y="630" font-size="10" style="fill:blue">xs:element</text><path d="M880 40 C900 40 880 640 900 640" style="fill:transparent;stroke:black" /><text x="910" y="640" font-size="8" style="fill:black">ref: tramos</text><rect x="900" y="670" width="200" height="40" style="fill:white;stroke:black;stroke-width:1" /><text x="910" y="680" font-size="10" style="fill:blue">xs:element</text><path d="M880 40 C900 40 880 690 900 690" style="fill:transparent;stroke:black" /><text x="910" y="690" font-size="8" style="fill:black">ref: vencedor</text><rect x="900" y="720" width="200" height="40" style="fill:white;stroke:black;stroke-width:1" /><text x="910" y="730" font-size="10" style="fill:blue">xs:element</text><path d="M880 40 C900 40 880 740 900 740" style="fill:transparent;stroke:black" /><text x="910" y="740" font-size="8" style="fill:black">ref: top_3_tras_carrera</text><rect x="680" y="820" width="200" height="40" style="fill:white;stroke:black;stroke-width:1" /><text x="690" y="830" font-size="10" style="fill:blue">xs:attribute</text><path d="M660 40 C680 40 660 840 680 840" style="fill:transparent;stroke:black" /><text x="690" y="840" font-size="8" style="fill:black">name: nombre</text><text x="690" y="850" font-size="8" style="fill:black">type: xs:ID</text><text x="690" y="860" font-size="8" style="fill:black">use: required</text><rect x="240" y="970" width="200" height="40" style="fill:white;stroke:black;stroke-width:1" /><text x="250" y="980" font-size="10" style="fill:blue">xs:element</text><path d="M220 40 C240 40 220 990 240 990" style="fill:transparent;stroke:black" /><text x="250" y="990" font-size="8" style="fill:black">name: longitud_circuito</text><rect x="460" y="970" width="200" height="40" style="fill:white;stroke:black;stroke-width:1" /><text x="470" y="980" font-size="10" style="fill:blue">xs:complexType</text><path d="M440 990 C460 990 440 990 460 990" style="fill:transparent;stroke:black" /><rect x="680" y="970" width="200" height="40" style="fill:white;stroke:black;stroke-width:1" /><text x="690" y="980" font-size="10" style="fill:blue">xs:simpleContent</text><path d="M660 990 C680 990 660 990 680 990" style="fill:transparent;stroke:black" /><rect x="900" y="970" width="200" height="40" style="fill:white;stroke:black;stroke-width:1" /><text x="910" y="980" font-size="10" style="fill:blue">xs:extension</text><path d="M880 990 C900 990 880 990 900 990" style="fill:transparent;stroke:black" /><text x="910" y="990" font-size="8" style="fill:black">base: xs:decimal</text><rect x="1120" y="970" width="200" height="40" style="fill:white;stroke:black;stroke-width:1" /><text x="1130" y="980" font-size="10" style="fill:blue">xs:attribute</text><path d="M1100 990 C1120 990 1100 990 1120 990" style="fill:transparent;stroke:black" /><text x="1130" y="990" font-size="8" style="fill:black">name: metros</text><rect x="1340" y="970" width="200" height="40" style="fill:white;stroke:black;stroke-width:1" /><text x="1350" y="980" font-size="10" style="fill:blue">xs:simpleType</text><path d="M1320 990 C1340 990 1320 990 1340 990" style="fill:transparent;stroke:black" /><rect x="1560" y="970" width="200" height="40" style="fill:white;stroke:black;stroke-width:1" /><text x="1570" y="980" font-size="10" style="fill:blue">xs:restriction</text><path d="M1540 990 C1560 990 1540 990 1560 990" style="fill:transparent;stroke:black" /><text x="1570" y="990" font-size="8" style="fill:black">base: xs:decimal</text><rect x="1780" y="970" width="200" height="40" style="fill:white;stroke:black;stroke-width:1" /><text x="1790" y="980" font-size="10" style="fill:blue">xs:minInclusive</text><path d="M1760 990 C1780 990 1760 990 1780 990" style="fill:transparent;stroke:black" /><text x="1790" y="990" font-size="8" style="fill:black">value: 50.0</text><rect x="1780" y="1020" width="200" height="40" style="fill:white;stroke:black;stroke-width:1" /><text x="1790" y="1030" font-size="10" style="fill:blue">xs:maxInclusive</text><path d="M1760 990 C1780 990 1760 1040 1780 1040" style="fill:transparent;stroke:black" /><text x="1790" y="1040" font-size="8" style="fill:black">value: 10000.0</text><rect x="240" y="1420" width="200" height="40" style="fill:white;stroke:black;stroke-width:1" /><text x="250" y="1430" font-size="10" style="fill:blue">xs:element</text><path d="M220 40 C240 40 220 1440 240 1440" style="fill:transparent;stroke:black" /><text x="250" y="1440" font-size="8" style="fill:black">name: anchura</text><rect x="460" y="1420" width="200" height="40" style="fill:white;stroke:black;stroke-width:1" /><text x="470" y="1430" font-size="10" style="fill:blue">xs:complexType</text><path d="M440 1440 C460 1440 440 1440 460 1440" style="fill:transparent;stroke:black" /><rect x="680" y="1420" width="200" height="40" style="fill:white;stroke:black;stroke-width:1" /><text x="690" y="1430" font-size="10" style="fill:blue">xs:simpleContent</text><path d="M660 1440 C680 1440 660 1440 680 1440" style="fill:transparent;stroke:black" /><rect x="900" y="1420" width="200" height="40" style="fill:white;stroke:black;stroke-width:1" /><text x="910" y="1430" font-size="10" style="fill:blue">xs:extension</text><path d="M880 1440 C900 1440 880 1440 900 1440" style="fill:transparent;stroke:black" /><text x="910" y="1440" font-size="8" style="fill:black">base: xs:decimal</text><rect x="1120" y="1420" width="200" height="40" style="fill:white;stroke:black;stroke-width:1" /><text x="1130" y="1430" font-size="10" style="fill:blue">xs:attribute</text><path d="M1100 1440 C1120 1440 1100 1440 1120 1440" style="fill:transparent;stroke:black" /><text x="1130" y="1440" font-size="8" style="fill:black">name: metros</text><rect x="1340" y="1420" width="200" height="40" style="fill:white;stroke:black;stroke-width:1" /><text x="1350" y="1430" font-size="10" style="fill:blue">xs:simpleType</text><path d="M1320 1440 C1340 1440 1320 1440 1340 1440" style="fill:transparent;stroke:black" /><rect x="1560" y="1420" width="200" height="40" style="fill:white;stroke:black;stroke-width:1" /><text x="1570" y="1430" font-size="10" style="fill:blue">xs:restriction</text><path d="M1540 1440 C1560 1440 1540 1440 1560 1440" style="fill:transparent;stroke:black" /><text x="1570" y="1440" font-size="8" style="fill:black">base: xs:decimal</text><rect x="1780" y="1420" width="200" height="40" style="fill:white;stroke:black;stroke-width:1" /><text x="1790" y="1430" font-size="10" style="fill:blue">xs:minInclusive</text><path d="M1760 1440 C1780 1440 1760 1440 1780 1440" style="fill:transparent;stroke:black" /><text x="1790" y="1440" font-size="8" style="fill:black">value: 5.0</text><rect x="1780" y="1470" width="200" height="40" style="fill:white;stroke:black;stroke-width:1" /><text x="1790" y="1480" font-size="10" style="fill:blue">xs:maxInclusive</text><path d="M1760 1440 C1780 1440 1760 1490 1780 1490" style="fill:transparent;stroke:black" /><text x="1790" y="1490" font-size="8" style="fill:black">value: 60.0</text><rect x="240" y="1870" width="200" height="40" style="fill:white;stroke:black;stroke-width:1" /><text x="250" y="1880" font-size="10" style="fill:blue">xs:element</text><path d="M220 40 C240 40 220 1890 240 1890" style="fill:transparent;stroke:black" /><text x="250" y="1890" font-size="8" style="fill:black">name: fecha</text><text x="250" y="1900" font-size="8" style="fill:black">type: xs:date</text><rect x="240" y="1920" width="200" height="40" style="fill:white;stroke:black;stroke-width:1" /><text x="250" y="1930" font-size="10" style="fill:blue">xs:element</text><path d="M220 40 C240 40 220 1940 240 1940" style="fill:transparent;stroke:black" /><text x="250" y="1940" font-size="8" style="fill:black">name: hora_española</text><text x="250" y="1950" font-size="8" style="fill:black">type: xs:time</text><rect x="240" y="1970" width="200" height="40" style="fill:white;stroke:black;stroke-width:1" /><text x="250" y="1980" font-size="10" style="fill:blue">xs:element</text><path d="M220 40 C240 40 220 1990 240 1990" style="fill:transparent;stroke:black" /><text x="250" y="1990" font-size="8" style="fill:black">name: num_vueltas</text><rect x="460" y="1970" width="200" height="40" style="fill:white;stroke:black;stroke-width:1" /><text x="470" y="1980" font-size="10" style="fill:blue">xs:simpleType</text><path d="M440 1990 C460 1990 440 1990 460 1990" style="fill:transparent;stroke:black" /><rect x="680" y="1970" width="200" height="40" style="fill:white;stroke:black;stroke-width:1" /><text x="690" y="1980" font-size="10" style="fill:blue">xs:restriction</text><path d="M660 1990 C680 1990 660 1990 680 1990" style="fill:transparent;stroke:black" /><text x="690" y="1990" font-size="8" style="fill:black">base: xs:positiveInteger</text><rect x="900" y="1970" width="200" height="40" style="fill:white;stroke:black;stroke-width:1" /><text x="910" y="1980" font-size="10" style="fill:blue">xs:minInclusive</text><path d="M880 1990 C900 1990 880 1990 900 1990" style="fill:transparent;stroke:black" /><text x="910" y="1990" font-size="8" style="fill:black">value: 1</text><rect x="900" y="2020" width="200" height="40" style="fill:white;stroke:black;stroke-width:1" /><text x="910" y="2030" font-size="10" style="fill:blue">xs:maxInclusive</text><path d="M880 1990 C900 1990 880 2040 900 2040" style="fill:transparent;stroke:black" /><text x="910" y="2040" font-size="8" style="fill:black">value: 200</text><rect x="240" y="2220" width="200" height="40" style="fill:white;stroke:black;stroke-width:1" /><text x="250" y="2230" font-size="10" style="fill:blue">xs:element</text><path d="M220 40 C240 40 220 2240 240 2240" style="fill:transparent;stroke:black" /><text x="250" y="2240" font-size="8" style="fill:black">name: localidad_mas_proxima</text><text x="250" y="2250" font-size="8" style="fill:black">type: xs:string</text><rect x="240" y="2270" width="200" height="40" style="fill:white;stroke:black;stroke-width:1" /><text x="250" y="2280" font-size="10" style="fill:blue">xs:element</text><path d="M220 40 C240 40 220 2290 240 2290" style="fill:transparent;stroke:black" /><text x="250" y="2290" font-size="8" style="fill:black">name: pais</text><text x="250" y="2300" font-size="8" style="fill:black">type: xs:string</text><rect x="240" y="2320" width="200" height="40" style="fill:white;stroke:black;stroke-width:1" /><text x="250" y="2330" font-size="10" style="fill:blue">xs:element</text><path d="M220 40 C240 40 220 2340 240 2340" style="fill:transparent;stroke:black" /><text x="250" y="2340" font-size="8" style="fill:black">name: patrocinador</text><text x="250" y="2350" font-size="8" style="fill:black">type: xs:string</text><rect x="240" y="2370" width="200" height="40" style="fill:white;stroke:black;stroke-width:1" /><text x="250" y="2380" font-size="10" style="fill:blue">xs:element</text><path d="M220 40 C240 40 220 2390 240 2390" style="fill:transparent;stroke:black" /><text x="250" y="2390" font-size="8" style="fill:black">name: referencias</text><rect x="460" y="2370" width="200" height="40" style="fill:white;stroke:black;stroke-width:1" /><text x="470" y="2380" font-size="10" style="fill:blue">xs:complexType</text><path d="M440 2390 C460 2390 440 2390 460 2390" style="fill:transparent;stroke:black" /><rect x="680" y="2370" width="200" height="40" style="fill:white;stroke:black;stroke-width:1" /><text x="690" y="2380" font-size="10" style="fill:blue">xs:sequence</text><path d="M660 2390 C680 2390 660 2390 680 2390" style="fill:transparent;stroke:black" /><rect x="900" y="2370" width="200" height="40" style="fill:white;stroke:black;stroke-width:1" /><text x="910" y="2380" font-size="10" style="fill:blue">xs:element</text><path d="M880 2390 C900 2390 880 2390 900 2390" style="fill:transparent;stroke:black" /><text x="910" y="2390" font-size="8" style="fill:black">ref: referencia</text><text x="910" y="2400" font-size="8" style="fill:black">minOccurs: 1</text><text x="910" y="2410" font-size="8" style="fill:black">maxOccurs: unbounded</text><rect x="240" y="2570" width="200" height="40" style="fill:white;stroke:black;stroke-width:1" /><text x="250" y="2580" font-size="10" style="fill:blue">xs:element</text><path d="M220 40 C240 40 220 2590 240 2590" style="fill:transparent;stroke:black" /><text x="250" y="2590" font-size="8" style="fill:black">name: referencia</text><text x="250" y="2600" font-size="8" style="fill:black">type: xs:string</text><rect x="240" y="2620" width="200" height="40" style="fill:white;stroke:black;stroke-width:1" /><text x="250" y="2630" font-size="10" style="fill:blue">xs:element</text><path d="M220 40 C240 40 220 2640 240 2640" style="fill:transparent;stroke:black" /><text x="250" y="2640" font-size="8" style="fill:black">name: fotografias</text><rect x="460" y="2620" width="200" height="40" style="fill:white;stroke:black;stroke-width:1" /><text x="470" y="2630" font-size="10" style="fill:blue">xs:complexType</text><path d="M440 2640 C460 2640 440 2640 460 2640" style="fill:transparent;stroke:black" /><rect x="680" y="2620" width="200" height="40" style="fill:white;stroke:black;stroke-width:1" /><text x="690" y="2630" font-size="10" style="fill:blue">xs:sequence</text><path d="M660 2640 C680 2640 660 2640 680 2640" style="fill:transparent;stroke:black" /><rect x="900" y="2620" width="200" height="40" style="fill:white;stroke:black;stroke-width:1" /><text x="910" y="2630" font-size="10" style="fill:blue">xs:element</text><path d="M880 2640 C900 2640 880 2640 900 2640" style="fill:transparent;stroke:black" /><text x="910" y="2640" font-size="8" style="fill:black">ref: fotografia</text><text x="910" y="2650" font-size="8" style="fill:black">minOccurs: 1</text><text x="910" y="2660" font-size="8" style="fill:black">maxOccurs: unbounded</text><rect x="240" y="2820" width="200" height="40" style="fill:white;stroke:black;stroke-width:1" /><text x="250" y="2830" font-size="10" style="fill:blue">xs:element</text><path d="M220 40 C240 40 220 2840 240 2840" style="fill:transparent;stroke:black" /><text x="250" y="2840" font-size="8" style="fill:black">name: fotografia</text><rect x="460" y="2820" width="200" height="40" style="fill:white;stroke:black;stroke-width:1" /><text x="470" y="2830" font-size="10" style="fill:blue">xs:complexType</text><path d="M440 2840 C460 2840 440 2840 460 2840" style="fill:transparent;stroke:black" /><rect x="680" y="2820" width="200" height="40" style="fill:white;stroke:black;stroke-width:1" /><text x="690" y="2830" font-size="10" style="fill:blue">xs:simpleContent</text><path d="M660 2840 C680 2840 660 2840 680 2840" style="fill:transparent;stroke:black" /><rect x="900" y="2820" width="200" height="40" style="fill:white;stroke:black;stroke-width:1" /><text x="910" y="2830" font-size="10" style="fill:blue">xs:extension</text><path d="M880 2840 C900 2840 880 2840 900 2840" style="fill:transparent;stroke:black" /><text x="910" y="2840" font-size="8" style="fill:black">base: xs:string</text><rect x="1120" y="2820" width="200" height="40" style="fill:white;stroke:black;stroke-width:1" /><text x="1130" y="2830" font-size="10" style="fill:blue">xs:attribute</text><path d="M1100 2840 C1120 2840 1100 2840 1120 2840" style="fill:transparent;stroke:black" /><text x="1130" y="2840" font-size="8" style="fill:black">name: ruta</text><text x="1130" y="2850" font-size="8" style="fill:black">type: xs:anyURI</text><text x="1130" y="2860" font-size="8" style="fill:black">use: required</text><rect x="240" y="3070" width="200" height="40" style="fill:white;stroke:black;stroke-width:1" /><text x="250" y="3080" font-size="10" style="fill:blue">xs:element</text><path d="M220 40 C240 40 220 3090 240 3090" style="fill:transparent;stroke:black" /><text x="250" y="3090" font-size="8" style="fill:black">name: videos</text><rect x="460" y="3070" width="200" height="40" style="fill:white;stroke:black;stroke-width:1" /><text x="470" y="3080" font-size="10" style="fill:blue">xs:complexType</text><path d="M440 3090 C460 3090 440 3090 460 3090" style="fill:transparent;stroke:black" /><rect x="680" y="3070" width="200" height="40" style="fill:white;stroke:black;stroke-width:1" /><text x="690" y="3080" font-size="10" style="fill:blue">xs:sequence</text><path d="M660 3090 C680 3090 660 3090 680 3090" style="fill:transparent;stroke:black" /><rect x="900" y="3070" width="200" height="40" style="fill:white;stroke:black;stroke-width:1" /><text x="910" y="3080" font-size="10" style="fill:blue">xs:element</text><path d="M880 3090 C900 3090 880 3090 900 3090" style="fill:transparent;stroke:black" /><text x="910" y="3090" font-size="8" style="fill:black">ref: video</text><text x="910" y="3100" font-size="8" style="fill:black">minOccurs: 1</text><text x="910" y="3110" font-size="8" style="fill:black">maxOccurs: unbounded</text><rect x="240" y="3270" width="200" height="40" style="fill:white;stroke:black;stroke-width:1" /><text x="250" y="3280" font-size="10" style="fill:blue">xs:element</text><path d="M220 40 C240 40 220 3290 240 3290" style="fill:transparent;stroke:black" /><text x="250" y="3290" font-size="8" style="fill:black">name: video</text><rect x="460" y="3270" width="200" height="40" style="fill:white;stroke:black;stroke-width:1" /><text x="470" y="3280" font-size="10" style="fill:blue">xs:complexType</text><path d="M440 3290 C460 3290 440 3290 460 3290" style="fill:transparent;stroke:black" /><rect x="680" y="3270" width="200" height="40" style="fill:white;stroke:black;stroke-width:1" /><text x="690" y="3280" font-size="10" style="fill:blue">xs:simpleContent</text><path d="M660 3290 C680 3290 660 3290 680 3290" style="fill:transparent;stroke:black" /><rect x="900" y="3270" width="200" height="40" style="fill:white;stroke:black;stroke-width:1" /><text x="910" y="3280" font-size="10" style="fill:blue">xs:extension</text><path d="M880 3290 C900 3290 880 3290 900 3290" style="fill:transparent;stroke:black" /><text x="910" y="3290" font-size="8" style="fill:black">base: xs:string</text><rect x="1120" y="3270" width="200" height="40" style="fill:white;stroke:black;stroke-width:1" /><text x="1130" y="3280" font-size="10" style="fill:blue">xs:attribute</text><path d="M1100 3290 C1120 3290 1100 3290 1120 3290" style="fill:transparent;stroke:black" /><text x="1130" y="3290" font-size="8" style="fill:black">name: ruta</text><text x="1130" y="3300" font-size="8" style="fill:black">type: xs:anyURI</text><text x="1130" y="3310" font-size="8" style="fill:black">use: required</text><rect x="240" y="3520" width="200" height="40" style="fill:white;stroke:black;stroke-width:1" /><text x="250" y="3530" font-size="10" style="fill:blue">xs:element</text><path d="M220 40 C240 40 220 3540 240 3540" style="fill:transparent;stroke:black" /><text x="250" y="3540" font-size="8" style="fill:black">name: punto_origen</text><rect x="460" y="3520" width="200" height="40" style="fill:white;stroke:black;stroke-width:1" /><text x="470" y="3530" font-size="10" style="fill:blue">xs:complexType</text><path d="M440 3540 C460 3540 440 3540 460 3540" style="fill:transparent;stroke:black" /><rect x="680" y="3520" width="200" height="40" style="fill:white;stroke:black;stroke-width:1" /><text x="690" y="3530" font-size="10" style="fill:blue">xs:sequence</text><path d="M660 3540 C680 3540 660 3540 680 3540" style="fill:transparent;stroke:black" /><rect x="900" y="3520" width="200" height="40" style="fill:white;stroke:black;stroke-width:1" /><text x="910" y="3530" font-size="10" style="fill:blue">xs:element</text><path d="M880 3540 C900 3540 880 3540 900 3540" style="fill:transparent;stroke:black" /><text x="910" y="3540" font-size="8" style="fill:black">ref: coordenadas</text><rect x="240" y="3720" width="200" height="40" style="fill:white;stroke:black;stroke-width:1" /><text x="250" y="3730" font-size="10" style="fill:blue">xs:element</text><path d="M220 40 C240 40 220 3740 240 3740" style="fill:transparent;stroke:black" /><text x="250" y="3740" font-size="8" style="fill:black">name: tramos</text><rect x="460" y="3720" width="200" height="40" style="fill:white;stroke:black;stroke-width:1" /><text x="470" y="3730" font-size="10" style="fill:blue">xs:complexType</text><path d="M440 3740 C460 3740 440 3740 460 3740" style="fill:transparent;stroke:black" /><rect x="680" y="3720" width="200" height="40" style="fill:white;stroke:black;stroke-width:1" /><text x="690" y="3730" font-size="10" style="fill:blue">xs:sequence</text><path d="M660 3740 C680 3740 660 3740 680 3740" style="fill:transparent;stroke:black" /><rect x="900" y="3720" width="200" height="40" style="fill:white;stroke:black;stroke-width:1" /><text x="910" y="3730" font-size="10" style="fill:blue">xs:element</text><path d="M880 3740 C900 3740 880 3740 900 3740" style="fill:transparent;stroke:black" /><text x="910" y="3740" font-size="8" style="fill:black">ref: tramo</text><text x="910" y="3750" font-size="8" style="fill:black">minOccurs: 1</text><text x="910" y="3760" font-size="8" style="fill:black">maxOccurs: unbounded</text><rect x="240" y="3920" width="200" height="40" style="fill:white;stroke:black;stroke-width:1" /><text x="250" y="3930" font-size="10" style="fill:blue">xs:element</text><path d="M220 40 C240 40 220 3940 240 3940" style="fill:transparent;stroke:black" /><text x="250" y="3940" font-size="8" style="fill:black">name: tramo</text><rect x="460" y="3920" width="200" height="40" style="fill:white;stroke:black;stroke-width:1" /><text x="470" y="3930" font-size="10" style="fill:blue">xs:complexType</text><path d="M440 3940 C460 3940 440 3940 460 3940" style="fill:transparent;stroke:black" /><rect x="680" y="3920" width="200" height="40" style="fill:white;stroke:black;stroke-width:1" /><text x="690" y="3930" font-size="10" style="fill:blue">xs:sequence</text><path d="M660 3940 C680 3940 660 3940 680 3940" style="fill:transparent;stroke:black" /><rect x="900" y="3920" width="200" height="40" style="fill:white;stroke:black;stroke-width:1" /><text x="910" y="3930" font-size="10" style="fill:blue">xs:element</text><path d="M880 3940 C900 3940 880 3940 900 3940" style="fill:transparent;stroke:black" /><text x="910" y="3940" font-size="8" style="fill:black">ref: dist_tramo</text><rect x="900" y="3970" width="200" height="40" style="fill:white;stroke:black;stroke-width:1" /><text x="910" y="3980" font-size="10" style="fill:blue">xs:element</text><path d="M880 3940 C900 3940 880 3990 900 3990" style="fill:transparent;stroke:black" /><text x="910" y="3990" font-size="8" style="fill:black">ref: coordenadas</text><rect x="900" y="4020" width="200" height="40" style="fill:white;stroke:black;stroke-width:1" /><text x="910" y="4030" font-size="10" style="fill:blue">xs:element</text><path d="M880 3940 C900 3940 880 4040 900 4040" style="fill:transparent;stroke:black" /><text x="910" y="4040" font-size="8" style="fill:black">ref: num_sector</text><rect x="240" y="4220" width="200" height="40" style="fill:white;stroke:black;stroke-width:1" /><text x="250" y="4230" font-size="10" style="fill:blue">xs:element</text><path d="M220 40 C240 40 220 4240 240 4240" style="fill:transparent;stroke:black" /><text x="250" y="4240" font-size="8" style="fill:black">name: dist_tramo</text><rect x="460" y="4220" width="200" height="40" style="fill:white;stroke:black;stroke-width:1" /><text x="470" y="4230" font-size="10" style="fill:blue">xs:complexType</text><path d="M440 4240 C460 4240 440 4240 460 4240" style="fill:transparent;stroke:black" /><rect x="680" y="4220" width="200" height="40" style="fill:white;stroke:black;stroke-width:1" /><text x="690" y="4230" font-size="10" style="fill:blue">xs:attribute</text><path d="M660 4240 C680 4240 660 4240 680 4240" style="fill:transparent;stroke:black" /><text x="690" y="4240" font-size="8" style="fill:black">name: metros</text><rect x="900" y="4220" width="200" height="40" style="fill:white;stroke:black;stroke-width:1" /><text x="910" y="4230" font-size="10" style="fill:blue">xs:simpleType</text><path d="M880 4240 C900 4240 880 4240 900 4240" style="fill:transparent;stroke:black" /><rect x="1120" y="4220" width="200" height="40" style="fill:white;stroke:black;stroke-width:1" /><text x="1130" y="4230" font-size="10" style="fill:blue">xs:restriction</text><path d="M1100 4240 C1120 4240 1100 4240 1120 4240" style="fill:transparent;stroke:black" /><text x="1130" y="4240" font-size="8" style="fill:black">base: xs:decimal</text><rect x="1340" y="4220" width="200" height="40" style="fill:white;stroke:black;stroke-width:1" /><text x="1350" y="4230" font-size="10" style="fill:blue">xs:minInclusive</text><path d="M1320 4240 C1340 4240 1320 4240 1340 4240" style="fill:transparent;stroke:black" /><text x="1350" y="4240" font-size="8" style="fill:black">value: 1.0</text><rect x="1340" y="4270" width="200" height="40" style="fill:white;stroke:black;stroke-width:1" /><text x="1350" y="4280" font-size="10" style="fill:blue">xs:maxInclusive</text><path d="M1320 4240 C1340 4240 1320 4290 1340 4290" style="fill:transparent;stroke:black" /><text x="1350" y="4290" font-size="8" style="fill:black">value: 10000.0</text><rect x="240" y="4570" width="200" height="40" style="fill:white;stroke:black;stroke-width:1" /><text x="250" y="4580" font-size="10" style="fill:blue">xs:element</text><path d="M220 40 C240 40 220 4590 240 4590" style="fill:transparent;stroke:black" /><text x="250" y="4590" font-size="8" style="fill:black">name: num_sector</text><rect x="460" y="4570" width="200" height="40" style="fill:white;stroke:black;stroke-width:1" /><text x="470" y="4580" font-size="10" style="fill:blue">xs:simpleType</text><path d="M440 4590 C460 4590 440 4590 460 4590" style="fill:transparent;stroke:black" /><rect x="680" y="4570" width="200" height="40" style="fill:white;stroke:black;stroke-width:1" /><text x="690" y="4580" font-size="10" style="fill:blue">xs:restriction</text><path d="M660 4590 C680 4590 660 4590 680 4590" style="fill:transparent;stroke:black" /><text x="690" y="4590" font-size="8" style="fill:black">base: xs:positiveInteger</text><rect x="900" y="4570" width="200" height="40" style="fill:white;stroke:black;stroke-width:1" /><text x="910" y="4580" font-size="10" style="fill:blue">xs:minInclusive</text><path d="M880 4590 C900 4590 880 4590 900 4590" style="fill:transparent;stroke:black" /><text x="910" y="4590" font-size="8" style="fill:black">value: 1</text><rect x="900" y="4620" width="200" height="40" style="fill:white;stroke:black;stroke-width:1" /><text x="910" y="4630" font-size="10" style="fill:blue">xs:maxInclusive</text><path d="M880 4590 C900 4590 880 4640 900 4640" style="fill:transparent;stroke:black" /><text x="910" y="4640" font-size="8" style="fill:black">value: 100</text><rect x="240" y="4820" width="200" height="40" style="fill:white;stroke:black;stroke-width:1" /><text x="250" y="4830" font-size="10" style="fill:blue">xs:element</text><path d="M220 40 C240 40 220 4840 240 4840" style="fill:transparent;stroke:black" /><text x="250" y="4840" font-size="8" style="fill:black">name: coordenadas</text><rect x="460" y="4820" width="200" height="40" style="fill:white;stroke:black;stroke-width:1" /><text x="470" y="4830" font-size="10" style="fill:blue">xs:complexType</text><path d="M440 4840 C460 4840 440 4840 460 4840" style="fill:transparent;stroke:black" /><rect x="680" y="4820" width="200" height="40" style="fill:white;stroke:black;stroke-width:1" /><text x="690" y="4830" font-size="10" style="fill:blue">xs:sequence</text><path d="M660 4840 C680 4840 660 4840 680 4840" style="fill:transparent;stroke:black" /><rect x="900" y="4820" width="200" height="40" style="fill:white;stroke:black;stroke-width:1" /><text x="910" y="4830" font-size="10" style="fill:blue">xs:element</text><path d="M880 4840 C900 4840 880 4840 900 4840" style="fill:transparent;stroke:black" /><text x="910" y="4840" font-size="8" style="fill:black">ref: longitud</text><rect x="900" y="4870" width="200" height="40" style="fill:white;stroke:black;stroke-width:1" /><text x="910" y="4880" font-size="10" style="fill:blue">xs:element</text><path d="M880 4840 C900 4840 880 4890 900 4890" style="fill:transparent;stroke:black" /><text x="910" y="4890" font-size="8" style="fill:black">ref: latitud</text><rect x="900" y="4920" width="200" height="40" style="fill:white;stroke:black;stroke-width:1" /><text x="910" y="4930" font-size="10" style="fill:blue">xs:element</text><path d="M880 4840 C900 4840 880 4940 900 4940" style="fill:transparent;stroke:black" /><text x="910" y="4940" font-size="8" style="fill:black">ref: altitud</text><rect x="240" y="5120" width="200" height="40" style="fill:white;stroke:black;stroke-width:1" /><text x="250" y="5130" font-size="10" style="fill:blue">xs:element</text><path d="M220 40 C240 40 220 5140 240 5140" style="fill:transparent;stroke:black" /><text x="250" y="5140" font-size="8" style="fill:black">name: longitud</text><rect x="460" y="5120" width="200" height="40" style="fill:white;stroke:black;stroke-width:1" /><text x="470" y="5130" font-size="10" style="fill:blue">xs:complexType</text><path d="M440 5140 C460 5140 440 5140 460 5140" style="fill:transparent;stroke:black" /><rect x="680" y="5120" width="200" height="40" style="fill:white;stroke:black;stroke-width:1" /><text x="690" y="5130" font-size="10" style="fill:blue">xs:attribute</text><path d="M660 5140 C680 5140 660 5140 680 5140" style="fill:transparent;stroke:black" /><text x="690" y="5140" font-size="8" style="fill:black">name: grados</text><text x="690" y="5150" font-size="8" style="fill:black">use: required</text><rect x="900" y="5120" width="200" height="40" style="fill:white;stroke:black;stroke-width:1" /><text x="910" y="5130" font-size="10" style="fill:blue">xs:simpleType</text><path d="M880 5140 C900 5140 880 5140 900 5140" style="fill:transparent;stroke:black" /><rect x="1120" y="5120" width="200" height="40" style="fill:white;stroke:black;stroke-width:1" /><text x="1130" y="5130" font-size="10" style="fill:blue">xs:restriction</text><path d="M1100 5140 C1120 5140 1100 5140 1120 5140" style="fill:transparent;stroke:black" /><text x="1130" y="5140" font-size="8" style="fill:black">base: xs:decimal</text><rect x="1340" y="5120" width="200" height="40" style="fill:white;stroke:black;stroke-width:1" /><text x="1350" y="5130" font-size="10" style="fill:blue">xs:minInclusive</text><path d="M1320 5140 C1340 5140 1320 5140 1340 5140" style="fill:transparent;stroke:black" /><text x="1350" y="5140" font-size="8" style="fill:black">value: -180.0</text><rect x="1340" y="5170" width="200" height="40" style="fill:white;stroke:black;stroke-width:1" /><text x="1350" y="5180" font-size="10" style="fill:blue">xs:maxInclusive</text><path d="M1320 5140 C1340 5140 1320 5190 1340 5190" style="fill:transparent;stroke:black" /><text x="1350" y="5190" font-size="8" style="fill:black">value: 180.0</text><rect x="240" y="5470" width="200" height="40" style="fill:white;stroke:black;stroke-width:1" /><text x="250" y="5480" font-size="10" style="fill:blue">xs:element</text><path d="M220 40 C240 40 220 5490 240 5490" style="fill:transparent;stroke:black" /><text x="250" y="5490" font-size="8" style="fill:black">name: latitud</text><rect x="460" y="5470" width="200" height="40" style="fill:white;stroke:black;stroke-width:1" /><text x="470" y="5480" font-size="10" style="fill:blue">xs:complexType</text><path d="M440 5490 C460 5490 440 5490 460 5490" style="fill:transparent;stroke:black" /><rect x="680" y="5470" width="200" height="40" style="fill:white;stroke:black;stroke-width:1" /><text x="690" y="5480" font-size="10" style="fill:blue">xs:attribute</text><path d="M660 5490 C680 5490 660 5490 680 5490" style="fill:transparent;stroke:black" /><text x="690" y="5490" font-size="8" style="fill:black">name: grados</text><text x="690" y="5500" font-size="8" style="fill:black">use: required</text><rect x="900" y="5470" width="200" height="40" style="fill:white;stroke:black;stroke-width:1" /><text x="910" y="5480" font-size="10" style="fill:blue">xs:simpleType</text><path d="M880 5490 C900 5490 880 5490 900 5490" style="fill:transparent;stroke:black" /><rect x="1120" y="5470" width="200" height="40" style="fill:white;stroke:black;stroke-width:1" /><text x="1130" y="5480" font-size="10" style="fill:blue">xs:restriction</text><path d="M1100 5490 C1120 5490 1100 5490 1120 5490" style="fill:transparent;stroke:black" /><text x="1130" y="5490" font-size="8" style="fill:black">base: xs:decimal</text><rect x="1340" y="5470" width="200" height="40" style="fill:white;stroke:black;stroke-width:1" /><text x="1350" y="5480" font-size="10" style="fill:blue">xs:minInclusive</text><path d="M1320 5490 C1340 5490 1320 5490 1340 5490" style="fill:transparent;stroke:black" /><text x="1350" y="5490" font-size="8" style="fill:black">value: -180.0</text><rect x="1340" y="5520" width="200" height="40" style="fill:white;stroke:black;stroke-width:1" /><text x="1350" y="5530" font-size="10" style="fill:blue">xs:maxInclusive</text><path d="M1320 5490 C1340 5490 1320 5540 1340 5540" style="fill:transparent;stroke:black" /><text x="1350" y="5540" font-size="8" style="fill:black">value: 180.0</text><rect x="240" y="5820" width="200" height="40" style="fill:white;stroke:black;stroke-width:1" /><text x="250" y="5830" font-size="10" style="fill:blue">xs:element</text><path d="M220 40 C240 40 220 5840 240 5840" style="fill:transparent;stroke:black" /><text x="250" y="5840" font-size="8" style="fill:black">name: altitud</text><rect x="460" y="5820" width="200" height="40" style="fill:white;stroke:black;stroke-width:1" /><text x="470" y="5830" font-size="10" style="fill:blue">xs:complexType</text><path d="M440 5840 C460 5840 440 5840 460 5840" style="fill:transparent;stroke:black" /><rect x="680" y="5820" width="200" height="40" style="fill:white;stroke:black;stroke-width:1" /><text x="690" y="5830" font-size="10" style="fill:blue">xs:attribute</text><path d="M660 5840 C680 5840 660 5840 680 5840" style="fill:transparent;stroke:black" /><text x="690" y="5840" font-size="8" style="fill:black">name: metros</text><text x="690" y="5850" font-size="8" style="fill:black">use: required</text><rect x="900" y="5820" width="200" height="40" style="fill:white;stroke:black;stroke-width:1" /><text x="910" y="5830" font-size="10" style="fill:blue">xs:simpleType</text><path d="M880 5840 C900 5840 880 5840 900 5840" style="fill:transparent;stroke:black" /><rect x="1120" y="5820" width="200" height="40" style="fill:white;stroke:black;stroke-width:1" /><text x="1130" y="5830" font-size="10" style="fill:blue">xs:restriction</text><path d="M1100 5840 C1120 5840 1100 5840 1120 5840" style="fill:transparent;stroke:black" /><text x="1130" y="5840" font-size="8" style="fill:black">base: xs:decimal</text><rect x="1340" y="5820" width="200" height="40" style="fill:white;stroke:black;stroke-width:1" /><text x="1350" y="5830" font-size="10" style="fill:blue">xs:minInclusive</text><path d="M1320 5840 C1340 5840 1320 5840 1340 5840" style="fill:transparent;stroke:black" /><text x="1350" y="5840" font-size="8" style="fill:black">value: -500.0</text><rect x="1340" y="5870" width="200" height="40" style="fill:white;stroke:black;stroke-width:1" /><text x="1350" y="5880" font-size="10" style="fill:blue">xs:maxInclusive</text><path d="M1320 5840 C1340 5840 1320 5890 1340 5890" style="fill:transparent;stroke:black" /><text x="1350" y="5890" font-size="8" style="fill:black">value: 9000.0</text><rect x="240" y="6170" width="200" height="40" style="fill:white;stroke:black;stroke-width:1" /><text x="250" y="6180" font-size="10" style="fill:blue">xs:element</text><path d="M220 40 C240 40 220 6190 240 6190" style="fill:transparent;stroke:black" /><text x="250" y="6190" font-size="8" style="fill:black">name: vencedor</text><rect x="460" y="6170" width="200" height="40" style="fill:white;stroke:black;stroke-width:1" /><text x="470" y="6180" font-size="10" style="fill:blue">xs:complexType</text><path d="M440 6190 C460 6190 440 6190 460 6190" style="fill:transparent;stroke:black" /><rect x="680" y="6170" width="200" height="40" style="fill:white;stroke:black;stroke-width:1" /><text x="690" y="6180" font-size="10" style="fill:blue">xs:sequence</text><path d="M660 6190 C680 6190 660 6190 680 6190" style="fill:transparent;stroke:black" /><rect x="900" y="6170" width="200" height="40" style="fill:white;stroke:black;stroke-width:1" /><text x="910" y="6180" font-size="10" style="fill:blue">xs:element</text><path d="M880 6190 C900 6190 880 6190 900 6190" style="fill:transparent;stroke:black" /><text x="910" y="6190" font-size="8" style="fill:black">ref: nombre</text><rect x="900" y="6220" width="200" height="40" style="fill:white;stroke:black;stroke-width:1" /><text x="910" y="6230" font-size="10" style="fill:blue">xs:element</text><path d="M880 6190 C900 6190 880 6240 900 6240" style="fill:transparent;stroke:black" /><text x="910" y="6240" font-size="8" style="fill:black">ref: tiempo</text><rect x="240" y="6420" width="200" height="40" style="fill:white;stroke:black;stroke-width:1" /><text x="250" y="6430" font-size="10" style="fill:blue">xs:element</text><path d="M220 40 C240 40 220 6440 240 6440" style="fill:transparent;stroke:black" /><text x="250" y="6440" font-size="8" style="fill:black">name: nombre</text><text x="250" y="6450" font-size="8" style="fill:black">type: xs:string</text><rect x="240" y="6470" width="200" height="40" style="fill:white;stroke:black;stroke-width:1" /><text x="250" y="6480" font-size="10" style="fill:blue">xs:element</text><path d="M220 40 C240 40 220 6490 240 6490" style="fill:transparent;stroke:black" /><text x="250" y="6490" font-size="8" style="fill:black">name: tiempo</text><text x="250" y="6500" font-size="8" style="fill:black">type: xs:duration</text><rect x="240" y="6520" width="200" height="40" style="fill:white;stroke:black;stroke-width:1" /><text x="250" y="6530" font-size="10" style="fill:blue">xs:element</text><path d="M220 40 C240 40 220 6540 240 6540" style="fill:transparent;stroke:black" /><text x="250" y="6540" font-size="8" style="fill:black">name: top_3_tras_carrera</text><rect x="460" y="6520" width="200" height="40" style="fill:white;stroke:black;stroke-width:1" /><text x="470" y="6530" font-size="10" style="fill:blue">xs:complexType</text><path d="M440 6540 C460 6540 440 6540 460 6540" style="fill:transparent;stroke:black" /><rect x="680" y="6520" width="200" height="40" style="fill:white;stroke:black;stroke-width:1" /><text x="690" y="6530" font-size="10" style="fill:blue">xs:sequence</text><path d="M660 6540 C680 6540 660 6540 680 6540" style="fill:transparent;stroke:black" /><rect x="900" y="6520" width="200" height="40" style="fill:white;stroke:black;stroke-width:1" /><text x="910" y="6530" font-size="10" style="fill:blue">xs:element</text><path d="M880 6540 C900 6540 880 6540 900 6540" style="fill:transparent;stroke:black" /><text x="910" y="6540" font-size="8" style="fill:black">ref: piloto</text><text x="910" y="6550" font-size="8" style="fill:black">minOccurs: 3</text><text x="910" y="6560" font-size="8" style="fill:black">maxOccurs: 3</text><rect x="240" y="6720" width="200" height="40" style="fill:white;stroke:black;stroke-width:1" /><text x="250" y="6730" font-size="10" style="fill:blue">xs:element</text><path d="M220 40 C240 40 220 6740 240 6740" style="fill:transparent;stroke:black" /><text x="250" y="6740" font-size="8" style="fill:black">name: piloto</text><text x="250" y="6750" font-size="8" style="fill:black">type: xs:string</text></svg>